# xmcd CD database file
# Copyright (C) 1993-1996 Ti Kan
#
# Track frame offsets:
#  150
#  26035
#  44590
#  59875
#  75708
#  94501
#  109143
#  129245
#  153367
#  168030
#  184345
#  197767
#  218277
#  232464
#  249684
#  272076
#
# Disc length: 3857 seconds
#
# Revision: 1
# Processed by: cddbd v1.5.2PL0 Copyright (c) Steve Scherf et al.
# Submitted via: Advanced CD Ripper Pro 2.0
#
DISCID=e20f0f10
DTITLE=AJDA PEKKAN - THE BEST OF
DYEAR=2008
DGENRE=OTHER
TTITLE0=KÝMLER GELDÝ KÝMLER GEÇTÝ
TTITLE1=NE VARSA BENDE VAR
TTITLE2=NE VARSA BENDE VAR
TTITLE3=ÜÇ KALP
TTITLE4=HER YERDE KAR VAR
TTITLE5=HARAM OLSUN
TTITLE6=YA SONRA
TTITLE7=BAMBAÞKA BÝRÝ
TTITLE8=HAYKIRACAK NEFESÝM KALAMASA BÝLE
TTITLE9=YENÝDEN BAÞLASIN
TTITLE10=BOÞ SOKAK
TTITLE11=PALAVRA
TTITLE12=O BENÝM DÜNYAM
TTITLE13=UYKUSUZ HER GECE
TTITLE14=DÝLE KOLAY
TTITLE15=NE TADI VAR BU DÜNYANIN
EXTD=
EXTT0=
EXTT1=
EXTT2=
EXTT3=
EXTT4=
EXTT5=
EXTT6=
EXTT7=
EXTT8=
EXTT9=
EXTT10=
EXTT11=
EXTT12=
EXTT13=
EXTT14=
EXTT15=
PLAYORDER=
